<!DOCTYPE svg PUBLIC "-//W3C//DTD SVG 1.1//EN" "http://www.w3.org/Graphics/SVG/1.1/DTD/svg11.dtd">
<!-- Uploaded to: SVG Repo, www.svgrepo.com, Transformed by: SVG Repo Mixer Tools -->
<svg fill="rgb(82, 86, 94)" version="1.1" id="Layer_1" xmlns="http://www.w3.org/2000/svg" xmlns:xlink="http://www.w3.org/1999/xlink" viewBox="0 0 512 512" xml:space="preserve" width="800px" height="800px" stroke="rgb(82, 86, 94)" transform="rotate(270)">
<g id="SVGRepo_bgCarrier" stroke-width="0"/>
<g id="SVGRepo_tracerCarrier" stroke-linecap="round" stroke-linejoin="round"/>
<g id="SVGRepo_iconCarrier"> <g> <g> <g> <path d="M432.706,153.967c7.322-21.973,11.034-44.86,11.034-68.019V8.533c0-4.719-3.823-8.533-8.533-8.533H264.54 c-4.71,0-8.533,3.814-8.533,8.533v77.414c0,23.159,3.712,46.046,11.042,68.019c4.463,13.397,10.283,26.419,17.297,38.69 l19.004,33.263c-3.243,1.98-6.153,4.523-8.346,7.774c-5.018,7.398-6.025,16.785-2.705,25.079l6.98,17.459 c0.145,0.35,0.486,1.05,0.666,1.374c8.943,15.88,9.643,35.558,2.21,61.918c-2.313,5.931-3.482,12.169-3.482,18.534v43.008h34.133 c4.71,0,8.533,3.814,8.533,8.533s-3.823,8.533-8.533,8.533h-34.133V435.2h34.133c4.71,0,8.533,3.814,8.533,8.533 s-3.823,8.533-8.533,8.533h-34.133v16.964c0,23.586,19.183,42.769,42.769,42.769h16.862c23.586,0,42.769-19.183,42.769-42.769 V358.059c0-6.528-1.229-12.911-3.405-18.261c-7.475-24.892-6.741-46.942,2.33-62.558c0.102-0.205,0.375-0.785,0.469-1.007 l7.083-17.707c3.294-8.243,2.287-17.562-2.688-24.909c-2.21-3.26-5.137-5.828-8.405-7.799l18.944-33.161 C422.415,180.386,428.235,167.364,432.706,153.967z M379.057,221.867h-58.368l-21.53-37.675 c-6.451-11.298-11.81-23.287-15.923-35.627c-6.741-20.233-10.163-41.301-10.163-62.618V17.067h153.6v68.881 c0,21.316-3.422,42.385-10.163,62.618c-4.113,12.339-9.472,24.329-15.923,35.627L379.057,221.867z"/> <rect x="264.534" y="307.196" width="17.075" height="51.2"/> <rect x="8.534" y="307.196" width="119.467" height="51.2"/> <rect x="204.8" y="375.462" width="76.809" height="51.2"/> <rect x="204.8" y="238.929" width="59.742" height="51.2"/> <rect x="85.334" y="238.929" width="102.4" height="51.2"/> <rect x="145.067" y="170.662" width="102.4" height="51.2"/> <rect x="8.534" y="375.462" width="59.733" height="51.2"/> <rect x="8.534" y="170.662" width="119.467" height="51.2"/> <rect x="426.676" y="307.196" width="76.791" height="51.2"/> <path d="M418.141,512h76.792c4.71,0,8.533-3.814,8.533-8.533v-59.733h-85.325V512z"/> <rect x="426.676" y="375.462" width="76.791" height="51.2"/> <rect x="426.684" y="238.929" width="76.783" height="51.2"/> <path d="M204.8,93.867c0-4.719-3.823-8.533-8.533-8.533H85.333V153.6H204.8V93.867z"/> <path d="M68.266,85.333h-51.2c-4.71,0-8.533,3.814-8.533,8.533V153.6h59.733V85.333z"/> <path d="M8.533,503.467c0,4.719,3.823,8.533,8.533,8.533H128v-68.267H8.533V503.467z"/> <rect x="264.534" y="443.729" width="25.609" height="68.267"/> <rect x="145.067" y="307.196" width="102.4" height="51.2"/> <rect x="8.534" y="238.929" width="59.733" height="51.2"/> <rect x="85.334" y="375.462" width="102.4" height="51.2"/> <rect x="145.067" y="443.729" width="102.4" height="68.267"/> </g> </g> </g> </g>
</svg>