<!DOCTYPE svg PUBLIC "-//W3C//DTD SVG 1.1//EN" "http://www.w3.org/Graphics/SVG/1.1/DTD/svg11.dtd">
<!-- Uploaded to: SVG Repo, www.svgrepo.com, Transformed by: SVG Repo Mixer Tools -->
<svg width="800px" height="800px" viewBox="0 0 24 24" fill="none" xmlns="http://www.w3.org/2000/svg" stroke="#">
<g id="SVGRepo_bgCarrier" stroke-width="0"/>
<g id="SVGRepo_tracerCarrier" stroke-linecap="round" stroke-linejoin="round"/>
<g id="SVGRepo_iconCarrier"> <path d="M11 7V3H17V11H21M21 11V21M21 11V7M14 7H14.01M14 11H14.01M18 14H18.01M18 18H18.01M5.95455 16L8.81126 11.1656C9.03797 10.7819 9.15133 10.5901 9.29848 10.5252C9.42688 10.4687 9.57312 10.4687 9.70152 10.5252C9.84867 10.5901 9.96203 10.7819 10.1887 11.1656L13.0455 16M5.95455 16L3 21H16L13.0455 16M5.95455 16L8 18L9.5 16H13.0455" stroke="#52565e" stroke-width="2" stroke-linecap="round" stroke-linejoin="round"/> </g>
</svg>