<!DOCTYPE svg PUBLIC "-//W3C//DTD SVG 1.1//EN" "http://www.w3.org/Graphics/SVG/1.1/DTD/svg11.dtd">
<!-- Uploaded to: SVG Repo, www.svgrepo.com, Transformed by: SVG Repo Mixer Tools -->
<svg width="800px" height="800px" viewBox="0 -36 1096 1096" fill="rgb(82, 86, 94)" class="icon" version="1.1" xmlns="http://www.w3.org/2000/svg" stroke="rgb(82, 86, 94)">
<g id="SVGRepo_bgCarrier" stroke-width="0"/>
<g id="SVGRepo_tracerCarrier" stroke-linecap="round" stroke-linejoin="round"/>
<g id="SVGRepo_iconCarrier">
<path d="M780.740062 540.92833l-16.440734-3.145184c-63.475532-17.012586-153.685127-83.490339-165.694012-110.08144a157.2592 157.2592 0 0 1 15.72592-22.445177c17.298512-22.016288 41.030355-52.324425 31.165914-90.92441s-49.894055-60.616273-79.058489-73.197009c-59.47257-25.590361-146.536982 1.715555-185.851781 16.440734a205.151775 205.151775 0 0 1-24.446658-22.159251l54.468869-76.056267a51.323684 51.323684 0 0 1 72.625157-11.008144L702.682314 314.618045a42.903169 42.903169 0 0 0 51.895536-68.33627l-98.358482-75.627379 64.047384-77.62886 1.858517-2.287406a13.152588 13.152588 0 0 1 8.720738-5.289628 12.437773 12.437773 0 0 1 9.006663 1.858518l256.189533 206.009552a42.917465 42.917465 0 0 0 53.754054-66.906642l-257.333236-206.295478a98.930333 98.930333 0 0 0-139.245874 19.871845l-65.619975 79.487377-52.038499-39.457763a137.10143 137.10143 0 0 0-194.286593 29.45036l-44.032576 61.474051a123.519953 123.519953 0 0 0-176.273267 23.874805L8.311464 348.357292a42.903169 42.903169 0 1 0 69.194048 50.751832l112.654773-153.542164a37.742208 37.742208 0 0 1 55.326646-6.147405c21.730362 27.01999 71.481455 85.777745 106.221441 100.074036a106.65033 106.65033 0 0 0 19.299993 5.86148h2.00148a42.888873 42.888873 0 0 0 9.149627 1.143703h1.00074a152.398461 152.398461 0 0 1 32.023692 2.859258l-5.289628 7.148145c-17.155549 25.447398-40.744429 60.187385-40.744429 103.362184a200.148073 200.148073 0 0 0 14.296291 72.482195c-220.448806 33.167395-364.412455 125.80736-364.412455 239.462872 0 143.677724 231.45695 252.186572 538.541278 252.186572s538.541279-108.508848 538.541279-252.901386c0-103.791072-117.515511-190.140669-315.376178-230.170284zM558.289776 938.079292c-259.048791 0-452.763533-87.779226-452.763533-166.408827 0-62.331828 134.099209-141.819206 350.830978-161.69105a42.888873 42.888873 0 0 0 30.594063-68.193307 144.106612 144.106612 0 0 1-31.45184-81.917747c0-16.72666 14.296291-37.170356 26.019249-55.326646 15.439994-22.731103 37.599245-55.469609 24.303695-88.351078a65.334049 65.334049 0 0 1 26.734064 3.574073 125.235508 125.235508 0 0 1 27.305916 14.296291c-3.288147 5.146665-8.8637 12.29481-12.866662 17.584438-14.296291 19.15703-33.596284 42.888873-34.597024 73.911824-2.430369 83.490339 159.975495 176.41623 232.028801 195.001408h3.002221l16.297772 3.145184c169.839936 34.454061 247.325833 100.074036 247.325833 146.822907-0.714815 79.773303-193.714742 167.552529-452.763533 167.55253zM846.217075 486.602425v-50.322944h42.459984l-67.192568-159.546607-59.615533 159.546607h42.602947v50.322944h41.74517zM1016.057011 562.372767v-51.323685h43.460724l-68.765159-162.977716-60.759237 162.977716h43.460725v51.323685h42.602947zM189.159544 562.372767v-51.466648h43.460725l-68.76516-162.834753-60.759236 162.834753h43.460724v51.466648h42.602947zM770.732659 645.434217a35.840801 35.840801 0 1 0-5.432591 71.481454c48.1785 3.717036 79.63034 30.165174 81.917747 39.3148 0 21.873325-100.074036 75.484416-287.069522 75.484416a800.592291 800.592291 0 0 1-157.2592-14.296291 35.740727 35.740727 0 0 0-14.29629 70.051826 873.7893 873.7893 0 0 0 170.840676 16.011846c172.699194 0 358.550976-46.034057 358.550976-146.965871 0.714815-54.325905-67.049604-104.934775-147.251796-111.08218z"/>
</g>
</svg>